<?xml version="1.0" encoding="UTF-8" standalone="no"?>
<!DOCTYPE svg PUBLIC "-//W3C//DTD SVG 1.1//EN" "http://www.w3.org/Graphics/SVG/1.1/DTD/svg11.dtd">
<svg width="100%" height="100%" viewBox="0 0 500 500" version="1.1" xmlns="http://www.w3.org/2000/svg" xmlns:xlink="http://www.w3.org/1999/xlink" xml:space="preserve" xmlns:serif="http://www.serif.com/" style="fill-rule:evenodd;clip-rule:evenodd;stroke-linejoin:round;stroke-miterlimit:2;">
    <g transform="matrix(-3.30843,0,0,3.30843,1455.47,-690.628)">
        <g transform="matrix(1,0,0,1,262.447,207.806)">
            <path d="M91.223,52.039L91.49,51.18C91.873,50.237 92.381,49.349 93,48.54C93.847,47.518 95.149,46.981 96.47,47.11L107.33,47.11C108.696,46.97 110.048,47.504 110.95,48.54C111.563,49.326 112.021,50.222 112.3,51.18L123.16,85.85L133,27.06C133.3,24.853 134.857,23.747 137.67,23.74L156.37,23.74C157.232,23.733 158.056,24.098 158.63,24.74C159.202,25.322 159.525,26.104 159.53,26.92L159.53,28L143.05,124.3C142.839,125.622 142.203,126.84 141.24,127.77C140.146,128.807 138.675,129.352 137.17,129.28L122.85,129.28C121.414,129.376 119.998,128.885 118.93,127.92C118.154,127.203 117.537,126.331 117.12,125.36L91.223,52.039Z" style="fill:rgb(238,126,115);"/>
        </g>
        <g transform="matrix(1,0,0,1,262.447,207.806)">
            <path d="M101.89,82.24L86.66,125.36C86.254,126.317 85.666,127.186 84.93,127.92C83.894,128.891 82.496,129.385 81.08,129.28L66.76,129.28C65.255,129.355 63.782,128.809 62.69,127.77C61.723,126.843 61.087,125.623 60.88,124.3L44.45,28C44.354,27.815 44.302,27.609 44.3,27.4L44.3,26.9C44.316,26.066 44.678,25.276 45.3,24.72C45.856,24.098 46.646,23.736 47.48,23.72L66.18,23.72C68.993,23.72 70.55,24.827 70.85,27.04L80.65,86.04L91.223,52.039L101.89,82.24Z" style="fill:rgb(238,126,115);fill-opacity:0.5;"/>
        </g>
    </g>
</svg>
