<svg id="Ebene_1" data-name="Ebene 1" xmlns="http://www.w3.org/2000/svg" viewBox="0 0 511.85 135.69"><defs><style>.cls-1{fill:#ee7e73;}</style></defs><path class="cls-1" d="M66.76,129.28a5.51,5.51,0,0,1-4.07-1.51,6.12,6.12,0,0,1-1.81-3.47L44.45,28a1.33,1.33,0,0,1-.15-.6V26.9a3,3,0,0,1,1-2.18,3,3,0,0,1,2.18-1h18.7q4.22,0,4.67,3.32l9.8,59L91.49,51.18A11.41,11.41,0,0,1,93,48.54a4,4,0,0,1,3.47-1.43h10.86a4.23,4.23,0,0,1,3.62,1.43,7.87,7.87,0,0,1,1.35,2.64l10.86,34.67L133,27.06q.45-3.31,4.67-3.32h18.7a3,3,0,0,1,2.26,1,3.14,3.14,0,0,1,.9,2.18V28L143.05,124.3a6.18,6.18,0,0,1-1.81,3.47,5.53,5.53,0,0,1-4.07,1.51H122.85a5.32,5.32,0,0,1-3.92-1.36,7.54,7.54,0,0,1-1.81-2.56L101.89,82.24,86.66,125.36a8.07,8.07,0,0,1-1.73,2.56,5.08,5.08,0,0,1-3.85,1.36Z" transform="translate(-44.3 -22.23)"/><path class="cls-1" d="M184.81,130.78a33.07,33.07,0,0,1-14.55-3.09,26.22,26.22,0,0,1-10.17-8.36,20.79,20.79,0,0,1,5-28.88q8.74-6.26,23.22-8.51l18.85-2.87V77q0-5.43-2.27-8.29c-1.5-1.91-4.27-2.87-8.29-2.87a11.75,11.75,0,0,0-5.95,1.36,22.76,22.76,0,0,0-4.07,2.94A20.51,20.51,0,0,1,183,72.74a2.65,2.65,0,0,1-.68.9,1.47,1.47,0,0,1-1,.3H164.91a3.35,3.35,0,0,1-2.49-1,2.73,2.73,0,0,1-.83-2.33,12.94,12.94,0,0,1,2-6.26,26.3,26.3,0,0,1,6.26-7,34.52,34.52,0,0,1,10.85-5.73,49.72,49.72,0,0,1,16-2.26,54.36,54.36,0,0,1,16.74,2.26A29.28,29.28,0,0,1,224.69,58a25.87,25.87,0,0,1,6.41,9.58,33.76,33.76,0,0,1,2.11,12.13v45.84a3.55,3.55,0,0,1-1.13,2.71,3.75,3.75,0,0,1-2.64,1.06H212a3.63,3.63,0,0,1-3.77-3.77v-5.28a22,22,0,0,1-5.28,5.28,27.18,27.18,0,0,1-7.76,3.84A33.62,33.62,0,0,1,184.81,130.78Zm7.09-17.18a16.54,16.54,0,0,0,7.91-1.89,13.17,13.17,0,0,0,5.58-5.88,21.9,21.9,0,0,0,2-10V93.7L194.61,96q-7.08,1.2-10.33,3.69a7.23,7.23,0,0,0-3.24,5.81,6.58,6.58,0,0,0,1.51,4.37,9.86,9.86,0,0,0,3.92,2.79A14.39,14.39,0,0,0,191.9,113.6Z" transform="translate(-44.3 -22.23)"/><path class="cls-1" d="M253.26,157.92a3.09,3.09,0,0,1-3.17-3.16,6.28,6.28,0,0,1,.08-.83,3.43,3.43,0,0,1,.38-1.13l11.76-28.35L233.36,56a4.72,4.72,0,0,1-.45-1.81,5,5,0,0,1,1.2-2.33,2.94,2.94,0,0,1,2.26-1h17.19a3.72,3.72,0,0,1,2.87,1A6.62,6.62,0,0,1,257.78,54l17.34,43.88L292.76,54a8.37,8.37,0,0,1,1.58-2.18,4,4,0,0,1,2.94-1h16.89a3.17,3.17,0,0,1,2.34,1,3,3,0,0,1,1,2.18,5.87,5.87,0,0,1-.45,2l-42.67,98.76a5.73,5.73,0,0,1-1.51,2.18,4.29,4.29,0,0,1-3,1Z" transform="translate(-44.3 -22.23)"/><path class="cls-1" d="M352.77,130.78q-17.79,0-28.35-9.65t-11-28.64V87.21q.45-11.91,5.35-20.43a32.41,32.41,0,0,1,13.57-13,43.77,43.77,0,0,1,20.28-4.45q13.26,0,21.93,5.28a33.51,33.51,0,0,1,13,14.32A46.82,46.82,0,0,1,392,89.62v3.62A3.55,3.55,0,0,1,390.83,96,3.74,3.74,0,0,1,388.2,97H340v1.06a24.94,24.94,0,0,0,1.51,8,12.26,12.26,0,0,0,4.22,5.73,11.35,11.35,0,0,0,6.94,2.11,11.66,11.66,0,0,0,5.05-1,13.53,13.53,0,0,0,3.39-2.26,28.28,28.28,0,0,0,2.11-2.19,7.76,7.76,0,0,1,2.19-1.88,6.78,6.78,0,0,1,2.63-.38h18.7a3.76,3.76,0,0,1,2.49.83,2.57,2.57,0,0,1,.83,2.34,13.43,13.43,0,0,1-2.57,6.18,31.08,31.08,0,0,1-7,7.16,38.17,38.17,0,0,1-11.53,5.8A52.05,52.05,0,0,1,352.77,130.78ZM340,82.09h25.48v-.31A23,23,0,0,0,364,73.34a11.69,11.69,0,0,0-4.37-5.58,12.4,12.4,0,0,0-7-2,11.65,11.65,0,0,0-6.86,2,12.4,12.4,0,0,0-4.3,5.58A21.74,21.74,0,0,0,340,81.78Z" transform="translate(-44.3 -22.23)"/><path class="cls-1" d="M436.89,129.28a41.12,41.12,0,0,1-16.66-3.09,22.71,22.71,0,0,1-10.78-9.65q-3.76-6.57-3.76-17V70.63H393.92a3.89,3.89,0,0,1-2.78-1.06A3.51,3.51,0,0,1,390,66.86V54.65a3.55,3.55,0,0,1,1.14-2.72,3.93,3.93,0,0,1,2.78-1h11.77V26a3.52,3.52,0,0,1,1.13-2.71,3.7,3.7,0,0,1,2.63-1.06h17.49A3.61,3.61,0,0,1,430.71,26V50.88h18.85a3.61,3.61,0,0,1,3.77,3.77V66.86a3.63,3.63,0,0,1-3.77,3.77H430.71V97.46a14.87,14.87,0,0,0,2,8.15q2,3,6.64,3h11.61a3.61,3.61,0,0,1,3.76,3.77v13.12a3.61,3.61,0,0,1-3.76,3.77Z" transform="translate(-44.3 -22.23)"/><path class="cls-1" d="M457,60.22a2.66,2.66,0,0,1-2-.9,2.87,2.87,0,0,1-.83-2,5.72,5.72,0,0,1,.3-1.81l11.31-29.1a9,9,0,0,1,1.89-2.86,4.8,4.8,0,0,1,3.69-1.36h10.4a3,3,0,0,1,2.26.91,2.7,2.7,0,0,1,.61,2.56L480,55.1a7.81,7.81,0,0,1-1.58,3.47,4.56,4.56,0,0,1-3.84,1.65Z" transform="translate(-44.3 -22.23)"/><path class="cls-1" d="M518.61,130.78A55.55,55.55,0,0,1,502,128.6a38.55,38.55,0,0,1-11.16-5.35,24.78,24.78,0,0,1-6.41-6.56,13.24,13.24,0,0,1-2.26-5.81,3.24,3.24,0,0,1,1.06-2.79,3.72,3.72,0,0,1,2.56-1.13h17.19a1.67,1.67,0,0,1,.75.15,7.83,7.83,0,0,1,.91.61,26.08,26.08,0,0,1,3.92,2.63,21.6,21.6,0,0,0,4.52,2.79,14.34,14.34,0,0,0,6.18,1.21,13.93,13.93,0,0,0,7.09-1.66,5.38,5.38,0,0,0,2.86-5,6,6,0,0,0-1.35-4c-.91-1-2.74-2.08-5.51-3.09a81.86,81.86,0,0,0-12.44-3,62,62,0,0,1-13.72-4.75,22.86,22.86,0,0,1-9-7.69,20.34,20.34,0,0,1-3.17-11.54A20,20,0,0,1,487.85,62a28.3,28.3,0,0,1,11.46-9.12q7.53-3.54,18.55-3.54a50.56,50.56,0,0,1,15.15,2,39,39,0,0,1,10.85,5.21,26.74,26.74,0,0,1,6.71,6.48,12.2,12.2,0,0,1,2.41,6,3.48,3.48,0,0,1-3.31,3.77H534a3.42,3.42,0,0,1-1.21-.23,5.14,5.14,0,0,1-1-.52,18.73,18.73,0,0,1-3.62-2.42A22.17,22.17,0,0,0,523.89,67a13.49,13.49,0,0,0-6-1.21,10,10,0,0,0-6.34,1.81,5.87,5.87,0,0,0-1,8.29q1.29,1.66,5.28,3a106.84,106.84,0,0,0,12.44,3q10.4,1.65,16.58,5.35a22.5,22.5,0,0,1,8.75,8.59,22.09,22.09,0,0,1,2.56,10.33,20.37,20.37,0,0,1-4.3,12.81q-4.29,5.58-12.74,8.67T518.61,130.78Z" transform="translate(-44.3 -22.23)"/></svg>